<svg version="1.1" id="Layer_1" xmlns="http://www.w3.org/2000/svg" xmlns:xlink="http://www.w3.org/1999/xlink" x="0px" y="0px"
	 width="100%" viewBox="0 0 1024 720" enable-background="new 0 0 1024 720" xml:space="preserve">
<path fill="#000000" opacity="1.000000" stroke="none" 
	d="
M428.441101,346.712708 
	C431.244934,354.165161 432.327820,361.823486 436.770264,368.598633 
	C433.389435,369.833435 430.336304,369.137543 427.939880,369.148682 
	C422.848969,349.621826 415.951294,331.244690 409.633514,311.244659 
	C406.617493,319.306030 404.129517,325.984131 401.617645,332.653198 
	C400.836334,334.727661 401.633331,336.556396 402.361359,338.429443 
	C404.711151,344.475006 407.321655,350.439636 409.284332,356.609589 
	C411.346039,363.090973 408.257324,367.731995 401.643646,369.081055 
	C393.587677,370.724304 387.975769,364.855164 389.966248,356.739960 
	C390.517700,354.491669 391.228241,352.181976 392.381195,350.200378 
	C395.954315,344.059326 395.738525,338.176331 392.689514,331.804871 
	C389.705017,325.568207 387.532440,318.943024 384.467804,311.121124 
	C378.437897,331.177917 371.192963,349.351349 366.414856,369.120850 
	C365.624146,369.687073 364.122101,369.535034 362.747040,368.679108 
	C370.587341,348.530396 376.421112,327.829620 383.566895,306.928650 
	C385.594330,306.443634 388.527130,306.473175 391.286163,307.078644 
	C392.481415,315.237244 396.330811,322.233063 399.498566,330.977020 
	C403.137634,322.462585 406.124329,315.135986 408.000397,307.074890 
	C410.649689,306.299835 413.560150,306.693268 415.538879,306.883636 
	C419.945007,320.479126 424.134338,333.405579 428.441101,346.712708 
M391.738708,361.794128 
	C393.296814,365.731140 396.161743,367.921356 400.262604,366.345154 
	C404.667084,364.652191 403.624176,360.794373 402.446136,357.451935 
	C400.992828,353.328674 399.227509,349.315369 397.045410,343.880707 
	C395.192108,350.670746 391.777771,355.314026 391.738708,361.794128 
z"/>
<path fill="#000000" opacity="1.000000" stroke="none" 
	d="
M542.591003,356.967957 
	C541.872925,340.238434 543.010925,323.932190 541.599670,307.275909 
	C544.153442,306.072296 547.030518,306.898987 549.985168,306.825317 
	C548.528564,316.792114 549.450073,326.358459 549.670349,336.071594 
	C551.382874,332.278931 553.305786,328.713989 556.374329,325.917358 
	C560.055054,322.562805 564.351135,321.441040 568.791199,323.663544 
	C572.978149,325.759277 573.527771,329.730469 572.501099,334.025360 
	C572.272034,334.983337 572.279968,336.012756 572.286987,337.008514 
	C572.295593,338.231445 572.551880,339.409546 574.068359,339.556763 
	C575.450012,339.690918 576.396118,338.855927 576.573547,337.623718 
	C576.880371,335.493256 577.050537,333.318054 577.008484,331.166870 
	C576.853149,323.230865 577.766907,315.257446 576.100769,307.093781 
	C579.112976,306.502991 581.986877,306.430389 584.584473,307.062988 
	C584.584473,327.778687 584.584473,348.160980 584.584473,368.890747 
	C582.273315,369.683441 579.548279,369.373566 576.467102,368.818512 
	C577.329224,360.263245 577.029663,351.879639 576.869385,343.588196 
	C570.273560,342.291443 568.808533,340.560211 570.058167,335.043121 
	C570.788635,331.818237 570.920288,328.926025 567.815918,327.141541 
	C564.799988,325.407928 561.640015,325.987366 558.895386,328.010406 
	C552.950256,332.392426 550.652100,339.009521 549.716553,345.748688 
	C548.674988,353.251465 548.481262,360.954681 550.285461,368.715210 
	C547.382629,369.690338 544.502380,369.429871 541.224487,368.771332 
	C542.526917,364.972076 542.769165,361.222595 542.591003,356.967957 
z"/>
<path fill="#000000" opacity="1.000000" stroke="none" 
	d="
M669.166016,368.753204 
	C658.803955,369.859894 648.862793,369.150024 639.087280,369.268707 
	C639.087280,348.277710 639.087280,327.816742 639.087280,306.893341 
	C646.776123,306.644958 654.966675,305.708527 662.953918,307.248688 
	C675.229187,309.615753 678.713501,321.236053 670.330200,330.532806 
	C669.897888,331.012238 669.513489,331.534821 668.717957,332.517792 
	C678.483582,337.005219 683.881165,344.196777 681.978149,355.059387 
	C680.770325,361.954132 676.634033,366.774994 669.166016,368.753204 
M671.469849,362.965363 
	C673.576782,360.498352 674.738159,357.564728 675.386902,354.456604 
	C677.125366,346.127991 672.165771,337.268433 664.817932,335.399261 
	C656.468262,333.275269 648.797791,337.580139 646.838928,345.972595 
	C646.062805,349.297821 646.301086,352.893097 646.318665,356.364227 
	C646.379333,368.323975 644.888245,366.821960 656.993469,366.902435 
	C661.889038,366.934998 667.102539,367.909851 671.469849,362.965363 
M650.153503,308.520752 
	C647.919983,308.846954 646.370911,309.913269 646.362915,312.365662 
	C646.333801,321.298889 646.351440,330.232269 646.351440,340.239563 
	C650.238831,335.391357 654.510681,333.326965 659.525391,332.101593 
	C665.416199,330.662109 668.329895,325.799896 667.981018,319.575287 
	C667.668945,314.007812 664.365662,310.430542 658.426819,308.995514 
	C655.950500,308.397095 653.474731,308.431976 650.153503,308.520752 
z"/>
<path fill="#000000" opacity="1.000000" stroke="none" 
	d="
M690.502625,369.220093 
	C688.617737,368.986267 688.307800,368.255585 688.404053,366.781128 
	C689.575684,348.819763 688.656982,330.835358 688.870056,312.861664 
	C688.891296,311.074615 688.374634,309.281219 687.981934,306.648315 
	C693.334045,306.648315 698.592590,306.642822 703.851074,306.649811 
	C709.680237,306.657562 715.530212,306.986420 721.332275,306.597168 
	C726.374634,306.258850 727.954956,308.374023 727.312805,312.960968 
	C727.121643,314.326202 727.918091,315.940613 726.070129,317.263672 
	C724.350403,314.153442 723.572327,310.364166 719.403015,309.387390 
	C712.636169,307.802063 705.829956,308.434906 699.028442,308.680389 
	C697.595581,308.732086 696.679932,309.846558 696.327576,311.270538 
	C696.208557,311.751831 696.056946,312.286346 696.151306,312.749451 
	C696.960632,316.721863 693.621948,322.027344 698.372803,324.544128 
	C703.637756,327.333252 713.345398,324.376770 717.098999,319.584198 
	C718.577820,324.078156 718.164368,328.147369 717.192993,333.600708 
	C712.651794,324.759735 705.389343,327.879944 699.123596,327.433258 
	C696.671021,327.258423 696.116211,329.034882 696.116333,331.085236 
	C696.116943,341.744263 696.130066,352.403320 696.106018,363.062286 
	C696.099854,365.812134 697.462585,366.942932 700.126404,366.912659 
	C704.122864,366.867188 708.122314,366.847626 712.117188,366.948425 
	C718.454041,367.108337 724.544678,366.964203 725.522766,357.132751 
	C728.026550,361.610352 727.750916,364.900238 726.741211,367.778046 
	C725.872620,370.253693 722.968994,369.257904 720.928528,369.271606 
	C710.936340,369.338715 700.943237,369.275726 690.502625,369.220093 
z"/>
<path fill="#000000" opacity="1.000000" stroke="none" 
	d="
M610.454041,364.476929 
	C607.951050,366.744141 605.567200,368.503052 602.632080,369.422577 
	C595.774170,371.571106 590.674072,367.789185 590.695435,360.562561 
	C590.703491,357.849762 591.529175,355.324097 592.363159,352.803467 
	C596.328979,340.817261 600.275757,328.824341 604.335999,316.870056 
	C605.417480,313.686035 606.568054,310.615997 604.331421,307.373962 
	C607.465271,306.310303 610.232239,306.627258 612.580078,306.931519 
	C618.518982,327.847168 625.691589,348.052582 632.709351,368.829865 
	C630.365112,369.906342 627.359680,369.234314 624.408875,369.002228 
	C623.203186,362.286407 621.004211,359.727997 617.076233,360.435699 
	C614.510010,360.898071 612.719604,362.760773 610.454041,364.476929 
M593.966858,358.379120 
	C594.731995,365.721832 599.307861,367.974792 605.754272,364.072327 
	C610.514465,361.190674 614.550598,356.820404 621.620728,357.606476 
	C616.930237,343.320160 612.497925,329.820435 607.773438,315.430695 
	C605.228027,319.873169 604.311035,323.743073 603.192566,327.501740 
	C600.208130,337.530762 595.617310,347.069427 593.966858,358.379120 
z"/>
<path fill="#000000" opacity="1.000000" stroke="none" 
	d="
M439.799805,362.587769 
	C439.389862,355.952332 442.252960,350.513123 444.035858,344.846771 
	C446.979431,335.491486 450.284332,326.250366 453.380157,316.942230 
	C454.417694,313.822784 456.155090,310.679230 452.992767,307.544800 
	C456.468536,306.263977 459.233582,306.652161 461.672180,306.933533 
	C467.562592,327.833160 474.714417,348.059570 481.794250,368.829926 
	C479.460419,369.890167 476.423431,369.222687 473.568085,369.099030 
	C471.955963,367.502808 473.624176,365.808441 472.866211,364.195312 
	C471.215179,360.681641 467.219421,359.231140 463.667511,361.495575 
	C460.451965,363.545502 457.653198,366.271393 454.375732,368.197266 
	C447.725922,372.104767 442.515961,370.118500 439.799805,362.587769 
M445.688538,347.067108 
	C444.897491,349.780151 443.968079,352.462097 443.350220,355.214020 
	C442.567017,358.702606 442.068848,362.413788 445.618317,364.721436 
	C449.192230,367.044891 452.664948,365.554321 455.861603,363.472473 
	C460.351471,360.548340 464.285889,356.400879 470.923462,358.015106 
	C466.084839,343.425934 461.590515,329.875000 457.096222,316.324066 
	C456.688904,316.393890 456.281616,316.463684 455.874298,316.533478 
	C452.573883,326.463379 449.273438,336.393280 445.688538,347.067108 
z"/>
<path fill="#000000" opacity="1.000000" stroke="none" 
	d="
M301.790771,353.053040 
	C306.012634,340.380219 310.142700,328.097137 314.255188,315.808167 
	C315.191681,313.009796 316.826447,310.170227 312.959778,307.482239 
	C316.863190,306.297455 319.760040,306.665405 322.173279,306.898468 
	C328.124359,327.875336 335.010132,348.189453 342.391174,368.837646 
	C339.805756,369.717560 336.795258,369.385681 333.385071,368.895721 
	C334.078003,365.168213 333.075409,362.136475 329.514893,360.703918 
	C325.961304,359.274139 323.533356,361.695892 321.111877,363.727356 
	C318.556213,365.871399 316.002411,368.015686 312.819031,369.177094 
	C305.070343,372.004120 298.973114,366.923828 300.335815,358.746582 
	C300.634796,356.952393 301.232513,355.207977 301.790771,353.053040 
M318.896606,320.626923 
	C318.273773,319.171295 318.315247,317.411926 316.449432,315.732056 
	C312.036987,329.484802 307.739471,342.858337 303.473511,356.241913 
	C303.277527,356.856659 303.339355,357.560913 303.323456,358.224518 
	C303.177765,364.305023 307.600342,367.410278 313.255829,365.096771 
	C314.775818,364.474976 316.203827,363.540863 317.534973,362.561157 
	C321.522583,359.626312 325.509399,356.769135 331.272003,357.819000 
	C327.108887,345.261047 323.142883,333.297607 318.896606,320.626923 
z"/>
<path fill="#000000" opacity="1.000000" stroke="none" 
	d="
M532.106750,351.901215 
	C532.254761,364.301544 521.804138,371.907196 507.614777,370.165894 
	C492.809265,368.348999 482.313507,356.783295 481.621185,341.833923 
	C481.125885,331.138367 482.701141,321.233124 490.784363,313.331329 
	C500.906433,303.436432 519.111328,303.029572 529.620667,312.506287 
	C532.651367,315.239197 533.230835,320.199951 531.084229,325.048492 
	C529.964294,324.995392 529.932373,324.097839 529.701416,323.314972 
	C527.220215,314.902283 520.296997,308.850555 512.445435,308.212860 
	C503.272156,307.467834 496.390625,311.284149 492.317383,319.956543 
	C486.675476,331.968781 486.604919,344.180695 492.524445,356.093750 
	C496.477386,364.049072 502.832977,368.707642 512.223267,367.636108 
	C520.882507,366.647919 526.411560,361.650543 529.426880,353.652588 
	C530.202209,351.596039 530.167969,351.583130 532.106750,351.901215 
z"/>
<path fill="#000000" opacity="1.000000" stroke="none" 
	d="
M270.991486,331.092102 
	C273.264923,322.920990 277.151581,315.615631 277.791992,307.273102 
	C279.093445,306.494873 280.483978,306.471527 281.900665,307.207825 
	C273.981323,327.226685 268.471771,348.036285 260.310547,369.609283 
	C252.143951,348.248810 247.079926,327.413025 238.759735,307.220581 
	C241.592987,306.221191 244.617569,306.715027 246.853363,306.831116 
	C251.351608,323.234406 257.139008,338.715942 263.230469,354.600006 
	C265.772247,346.887848 268.313995,339.175720 270.991486,331.092102 
z"/>
<path fill="#000000" opacity="1.000000" stroke="none" 
	d="
M748.269043,366.905243 
	C752.070190,366.917511 755.406067,366.837158 758.734192,366.961884 
	C765.126953,367.201385 771.045105,366.760712 772.392334,358.202942 
	C774.069153,361.350311 773.272766,364.132111 773.255188,366.826660 
	C773.244690,368.441589 772.155518,369.206604 770.622864,369.209045 
	C758.673584,369.228088 746.724304,369.219574 735.104004,369.219574 
	C735.104004,348.253845 735.104004,327.906647 735.104004,307.418884 
	C738.427246,306.420685 738.626953,306.414001 742.304504,307.106445 
	C742.304504,322.666412 742.304199,338.072357 742.304871,353.478302 
	C742.304993,356.144196 742.492615,358.825531 742.269592,361.472443 
	C741.916687,365.661438 743.747070,367.343445 748.269043,366.905243 
z"/>
<path fill="#000000" opacity="1.000000" stroke="none" 
	d="
M293.343750,312.637634 
	C293.330536,331.596771 293.330536,350.116333 293.330536,369.090881 
	C291.547424,369.595856 288.654480,369.491119 286.089691,368.931152 
	C286.089691,348.217407 286.089691,327.787598 286.089691,307.274261 
	C289.963287,306.421844 290.306335,306.424194 294.520599,307.457794 
	C294.132843,309.037415 293.744934,310.617706 293.343750,312.637634 
z"/>
<path fill="#000000" opacity="1.000000" stroke="none" 
	d="
M779.676880,326.003296 
	C779.351074,319.581085 780.488281,313.577698 778.608643,307.370605 
	C781.414612,306.199768 784.261963,306.695892 786.903687,306.948822 
	C786.903687,327.609833 786.903687,348.029083 786.903687,368.568237 
	C783.406311,369.568451 783.079285,369.574615 779.136658,368.689850 
	C780.254211,354.597961 779.415588,340.538391 779.676880,326.003296 
z"/>
</svg>